HIERARCHY
ROOT root
{
	OFFSET	0	13.1	24.9
	CHANNELS 6  Xposition Yposition Zposition Xrotation Yrotation Zrotation
	JOINT spine_1
	{
		OFFSET	0	9.99999	0
		CHANNELS 3  Xrotation Yrotation Zrotation
		JOINT spine_2
		{
			OFFSET	0	112	-10
			CHANNELS 3  Xrotation Yrotation Zrotation
			JOINT spine_3
			{
				OFFSET	0	206.5	19.3
				CHANNELS 3  Xrotation Yrotation Zrotation
				JOINT spine_4
				{
					OFFSET	0	110.4	14.6
					CHANNELS 3  Xrotation Yrotation Zrotation
					JOINT neck_1
					{
						OFFSET	0	71.8	-50.3
						CHANNELS 3  Xrotation Yrotation Zrotation
						JOINT neck_2
						{
							OFFSET	0	86.2	-25.8
							CHANNELS 3  Xrotation Yrotation Zrotation
							JOINT head_ee
							{
								OFFSET	0	179.8	-8.7
								CHANNELS 3  Xrotation Yrotation Zrotation
								End Site
								{
									OFFSET	1	0	0
								}
							}
						}
					}
					JOINT left_clavicle
					{
						OFFSET	-43.2	22.4	-70.8
						CHANNELS 3  Xrotation Yrotation Zrotation
						JOINT left_shoulder
						{
							OFFSET	-93.9	-5.79999	48.7
							CHANNELS 3  Xrotation Yrotation Zrotation
							JOINT left_elbow
							{
								OFFSET	-291.4	-30.8	15.2
								CHANNELS 3  Xrotation Yrotation Zrotation
								JOINT left_lowarm_twist
								{
									OFFSET	-110.7	-3.89999	13.6
									CHANNELS 3  Xrotation Yrotation Zrotation
									JOINT left_hand
									{
										OFFSET	-110.7	-3.89999	13.6
										CHANNELS 3  Xrotation Yrotation Zrotation
										JOINT left_ee
										{
											OFFSET	-80.8	-5.10001	12.1
											CHANNELS 3  Xrotation Yrotation Zrotation
											End Site
											{
												OFFSET	1	0	0
											}
										}
									}
								}
							}
						}
					}
					JOINT right_clavicle
					{
						OFFSET	43.2	22.4	-70.8
						CHANNELS 3  Xrotation Yrotation Zrotation
						JOINT right_shoulder
						{
							OFFSET	93.9	-5.79999	48.7
							CHANNELS 3  Xrotation Yrotation Zrotation
							JOINT right_elbow
							{
								OFFSET	291.4	-30.8	15.2
								CHANNELS 3  Xrotation Yrotation Zrotation
								JOINT right_lowarm_twist
								{
									OFFSET	110.7	-3.89999	13.6
									CHANNELS 3  Xrotation Yrotation Zrotation
									JOINT right_hand
									{
										OFFSET	110.7	-3.89999	13.6
										CHANNELS 3  Xrotation Yrotation Zrotation
										JOINT right_ee
										{
											OFFSET	80.8	-5.10001	12.1
											CHANNELS 3  Xrotation Yrotation Zrotation
											End Site
											{
												OFFSET	1	0	0
											}
										}
									}
								}
							}
						}
					}
				}
			}
		}
	}
	JOINT left_hip
	{
		OFFSET	-82.8	-127.5	0.300001
		CHANNELS 3  Xrotation Yrotation Zrotation
		JOINT left_knee
		{
			OFFSET	-28.2	-396.7	2.2
			CHANNELS 3  Xrotation Yrotation Zrotation
			JOINT left_ankle
			{
				OFFSET	-11.7	-411.3	35.4
				CHANNELS 3  Xrotation Yrotation Zrotation
				JOINT left_toes
				{
					OFFSET	0	-60	-88.6
					CHANNELS 3  Xrotation Yrotation Zrotation
					JOINT left_foot_ee
					{
						OFFSET	-22.5	-16.5	-42.2
						CHANNELS 3  Xrotation Yrotation Zrotation
						End Site
						{
							OFFSET	1	0	0
						}
					}
				}
			}
		}
	}
	JOINT right_hip
	{
		OFFSET	82.8	-127.5	0.300001
		CHANNELS 3  Xrotation Yrotation Zrotation
		JOINT right_knee
		{
			OFFSET	28.2	-396.7	2.2
			CHANNELS 3  Xrotation Yrotation Zrotation
			JOINT right_ankle
			{
				OFFSET	11.7	-411.3	35.4
				CHANNELS 3  Xrotation Yrotation Zrotation
				JOINT right_toes
				{
					OFFSET	0	-60	-88.6
					CHANNELS 3  Xrotation Yrotation Zrotation
					JOINT right_foot_ee
					{
						OFFSET	22.5	-16.5	-42.2
						CHANNELS 3  Xrotation Yrotation Zrotation
						End Site
						{
							OFFSET	1	0	0
						}
					}
				}
			}
		}
	}
}
MOTION
Frames: 7
Frame Time: 0.02
3463.40662095 728.973 -1546.27443145 -19.1996575586 82.6416467517 20.4123429294 0.397124 0.629079 -0.223534 0.396922 0.642029 -0.18305 0.394746 0.665841 -0.0486017 0.395332 0.649809 -0.153153 1.57772 21.3279 -0.787225 3.12899 38.4086 0.482375 -0.0 0.0 -0.0 2.54243 24.9411 6.25039 -22.7935 -15.2562 70.8758 0.801564 -21.6565 0.153319 -28.3095 -1.80212 3.10109 -2.67361 28.7557 -3.19205 -0.0 0.0 -0.0 12.3683 4.06303 -24.935 -1.73163 22.5861 -66.3751 0.373312 10.4774 -0.0342285 10.349 -0.248083 1.29692 5.03463 -21.5375 -42.6349 0.0 0.0 0.0 10.7341 -2.68556 -7.62339 -22.7889 0.2521 3.46505 38.0141 -0.0222041 -4.70113 -22.7802 0.0 0.0 -0.0 0.0 -0.0 -1.61666 -26.6493 -1.41823 -7.01272 -0.224569 -1.05215 26.5536 34.1002 4.61262 -10.0951 0.0 0.0 0.0 0.0 0.0 
3465.61805939 728.973 -1549.59463598 -15.6003242211 80.9892989426 16.7763746164 0.397124 0.629079 -0.223534 0.396922 0.642029 -0.18305 0.394746 0.665841 -0.0486017 0.395332 0.649809 -0.153153 1.57772 21.3279 -0.787225 3.12899 38.4086 0.482375 -0.0 0.0 -0.0 2.54243 24.9411 6.25039 -22.7935 -15.2562 70.8758 0.801564 -21.6565 0.153319 -28.3095 -1.80212 3.10109 -2.67361 28.7557 -3.19205 -0.0 0.0 -0.0 12.3683 4.06303 -24.935 -1.73163 22.5861 -66.3751 0.373312 10.4774 -0.0342285 10.349 -0.248083 1.29692 5.03463 -21.5375 -42.6349 0.0 0.0 0.0 10.7341 -2.68556 -7.62339 -22.7889 0.2521 3.46505 38.0141 -0.0222041 -4.70113 -22.7802 0.0 0.0 -0.0 0.0 -0.0 -1.61666 -26.6493 -1.41823 -7.01272 -0.224569 -1.05215 26.5536 34.1002 4.61262 -10.0951 0.0 0.0 0.0 0.0 0.0 
3464.66411976 726.768 -1551.15584153 -18.8497102917 81.5162473725 20.065384365 0.426194 0.764635 -0.294091 0.425902 0.781799 -0.244837 0.422374 0.815219 -0.0810464 0.42324 0.792188 -0.208786 2.53016 22.0337 -0.0451483 4.25668 38.7916 1.03142 -0.0 0.0 -0.0 2.29649 25.4149 5.94094 -22.4152 -15.0741 70.7396 0.805139 -21.7441 0.15464 -28.0215 -1.7764 3.0746 -2.62367 28.6145 -2.9979 -0.0 0.0 -0.0 12.2797 4.92833 -24.7811 -0.093572 23.9702 -67.3094 0.45248 12.634 -0.0500903 10.8716 -0.254357 1.36338 5.09726 -23.5425 -43.4265 0.0 0.0 0.0 12.629 -0.204029 -8.47212 -23.9077 0.228817 3.63515 35.4167 -4.27757 -4.50396 -20.8548 0.0 0.0 -0.0 0.0 -0.0 -1.86538 -26.955 -1.20419 -6.73349 -0.218101 -1.00978 28.1698 34.5383 4.86899 -11.03 0.0 0.0 0.0 0.0 0.0 
3453.37974051 726.178 -1545.15619954 -27.0136428286 83.5799627614 28.2610433046 0.317516 0.83517 -0.280185 0.317156 0.851306 -0.22647 0.313566 0.879643 -0.0472834 0.314598 0.861135 -0.185624 2.53456 22.2177 0.39818 4.24103 38.7507 1.54115 -0.0 0.0 -0.0 2.15039 25.4991 5.75202 -21.794 -13.9662 71.3776 0.744959 -20.2556 0.133072 -28.0495 -1.7789 3.07719 -2.75498 28.4512 -3.79377 -0.0 0.0 -0.0 12.0985 5.74209 -24.4116 0.937651 25.1439 -67.2561 0.499726 13.9042 -0.060935 8.96695 -0.228573 1.12147 4.53738 -22.8506 -38.7765 0.0 0.0 0.0 15.3441 -1.50308 -8.78072 -28.2262 0.107909 4.28671 34.8088 -1.6154 -4.41449 -20.6666 0.0 0.0 -0.0 0.0 -0.0 -2.53732 -28.3323 -1.33869 -6.34044 -0.208646 -0.950207 28.3963 33.7787 4.84545 -9.65945 0.0 0.0 0.0 0.0 0.0 
3443.12689901 728.418 -1541.38102724 -28.7660070509 85.6487941404 30.1074489279 0.0724397 0.801222 -0.223081 0.0720989 0.813794 -0.171642 0.0694427 0.831694 0.00223503 0.070385 0.821608 -0.129153 2.48969 22.4424 0.886476 4.17304 38.7598 2.11615 -0.0 0.0 -0.0 2.00635 25.7632 5.57505 -21.3116 -12.8235 71.6464 0.711496 -19.4152 0.121717 -28.05 -1.77894 3.07723 -2.83695 28.2592 -4.34163 -0.0 0.0 -0.0 11.9598 6.34012 -24.1234 2.08362 25.8653 -67.9216 0.559463 15.4904 -0.0760926 8.14761 -0.21501 1.01769 4.30527 -23.573 -37.0958 0.0 0.0 0.0 18.0155 0.305669 -9.60473 -29.2269 0.0728993 4.43631 32.6361 -1.11836 -4.19398 -20.3276 0.0 0.0 -0.0 0.0 -0.0 -3.18207 -28.3788 -1.18479 -6.47097 -0.211832 -0.969986 27.9788 33.586 4.77523 -10.0975 0.0 0.0 0.0 0.0 0.0 
3437.8969695 723.393 -1543.23761887 -41.872558448 86.6915648268 43.5414723414 -0.148039 0.665746 -0.196556 -0.148272 0.676904 -0.153793 -0.150259 0.694126 -0.00626071 -0.149605 0.684426 -0.115812 -0.0486042 21.2269 0.658102 1.10699 37.492 2.6225 -0.0 0.0 -0.0 2.07724 25.0426 5.63521 -21.7837 -11.2336 71.9894 0.702532 -19.1886 0.118754 -27.238 -1.70711 3.00189 -2.65663 28.2143 -3.3877 -0.0 0.0 -0.0 12.004 7.72932 -24.2579 3.50645 27.3698 -68.2926 0.634228 17.4417 -0.0972877 6.77613 -0.188989 0.84443 4.00846 -24.0803 -34.9679 0.0 0.0 0.0 21.1623 3.35251 -11.0807 -30.5525 0.0225066 4.63349 27.0261 -3.08705 -3.61162 -20.378 0.0 0.0 -0.0 0.0 -0.0 -3.89639 -22.8331 -1.53989 -5.69572 -0.192253 -0.852625 29.1001 33.4721 4.91828 -10.9257 0.0 0.0 0.0 0.0 0.0 
3420.06537196 715.192 -1540.90062341 -125.321376458 87.887728843 125.841041942 -0.357031 0.349004 0.358348 -0.357018 0.325494 0.379829 -0.354782 0.235673 0.441219 -0.354926 0.302397 0.398463 0.737109 21.9326 1.58819 2.02352 37.7974 3.43882 -0.0 0.0 -0.0 1.36412 24.6201 4.66111 -21.7071 -9.90188 72.5286 0.72143 -19.6656 0.12504 -27.5256 -1.73243 3.02869 -2.97542 27.4993 -5.51478 -0.0 0.0 -0.0 12.3082 11.1902 -24.9748 6.39274 27.9034 -68.1591 0.679318 18.5989 -0.111237 6.53608 -0.184008 0.814171 3.78239 -25.921 -33.6269 0.0 0.0 0.0 24.7322 2.93424 -10.1557 -26.9537 0.148639 4.09568 21.2965 -5.02545 -2.95477 -21.8818 0.0 0.0 -0.0 0.0 -0.0 -3.46379 -28.0118 0.342685 -10.2723 -0.284757 -1.54865 31.9247 33.5289 5.28615 -10.377 0.0 0.0 0.0 0.0 0.0 
